<svg width="163" height="138" viewBox="0 0 163 138" fill="none" xmlns="http://www.w3.org/2000/svg">
<path d="M95.0832 18.4198C95.6108 18.9962 96.3729 19.2268 97.0764 19.2268C97.7798 19.2268 98.4246 18.9962 99.0108 18.4774C100.125 17.4398 100.125 15.7104 99.0695 14.6727C98.3074 13.9233 97.5453 13.1162 96.7246 12.3092C95.6695 11.2139 93.9108 11.2139 92.8556 12.2515C91.7418 13.2892 91.7418 15.0186 92.797 16.0562C93.6177 16.8633 94.3798 17.6704 95.0832 18.4198Z" fill="#CDA642"/>
<path d="M134.535 80.7363C134.535 70.2445 131.37 59.2339 125.156 48.0504C120.349 39.4033 113.666 30.468 104.756 20.7256C103.759 19.6303 102.001 19.515 100.887 20.5527C99.773 21.5327 99.6558 23.2621 100.711 24.3574C120.056 45.3986 129.025 63.3269 129.025 80.7363C129.025 92.7846 124.277 104.083 115.601 112.615C106.925 121.147 95.435 125.816 83.1832 125.816C70.9314 125.816 59.4417 121.147 50.7658 112.615C42.0899 104.083 37.3416 92.7846 37.3416 80.7363C37.3416 51.2786 64.0142 25.2798 81.6591 8.10089C82.8901 6.94795 84.0039 5.79501 85.1177 4.69971C86.1729 3.66206 86.1729 1.93265 85.1177 0.894997C84.0626 -0.142652 82.3039 -0.142652 81.2488 0.894997C80.135 1.99029 78.9625 3.08559 77.7901 4.29618C68.7039 13.1162 57.4486 24.0692 48.2451 36.9245C37.1658 52.3739 31.8312 66.6704 31.8312 80.7363C31.8312 94.2258 37.1658 106.908 46.8968 116.478C56.6279 126.047 69.5245 131.293 83.2419 131.293C96.9592 131.293 109.856 126.047 119.587 116.478C129.201 106.966 134.535 94.2834 134.535 80.7363Z" fill="#CDA642"/>
<path d="M159.918 13.0009H156.518C154.994 13.0009 153.763 14.2114 153.763 15.7103C153.763 17.2091 154.994 18.4197 156.518 18.4197H159.918C161.442 18.4197 162.673 17.2091 162.673 15.7103C162.673 14.2114 161.442 13.0009 159.918 13.0009Z" fill="#CDA642"/>
<path d="M127.735 18.4197H148.135C149.659 18.4197 150.89 17.2091 150.89 15.7103C150.89 14.2114 149.659 13.0009 148.135 13.0009H127.735C126.211 13.0009 124.98 14.2114 124.98 15.7103C124.98 17.1515 126.211 18.4197 127.735 18.4197Z" fill="#CDA642"/>
<path d="M14.7725 128.756H11.3724C9.84829 128.756 8.61725 129.967 8.61725 131.466C8.61725 132.965 9.84829 134.175 11.3724 134.175H14.7725C16.2966 134.175 17.5276 132.965 17.5276 131.466C17.5276 129.967 16.2966 128.756 14.7725 128.756Z" fill="#CDA642"/>
<path d="M43.4967 128.756H23.0966C21.5725 128.756 20.3414 129.967 20.3414 131.466C20.3414 132.965 21.5725 134.175 23.0966 134.175H43.4967C45.0209 134.175 46.2519 132.965 46.2519 131.466C46.2519 129.967 45.0209 128.756 43.4967 128.756Z" fill="#CDA642"/>
<path d="M138.58 70.3599C138.052 70.8787 137.759 71.5704 137.759 72.2622C137.759 72.954 138.052 73.7034 138.58 74.1646C139.108 74.6834 139.811 74.9716 140.515 74.9716C141.218 74.9716 141.921 74.6834 142.449 74.1646C142.977 73.6457 143.27 72.954 143.27 72.2622C143.27 71.5704 142.977 70.8787 142.449 70.3599C141.921 69.841 141.218 69.5528 140.515 69.5528C139.811 69.5528 139.108 69.841 138.58 70.3599Z" fill="#CDA642"/>
<path d="M157.397 69.5528H147.784C146.259 69.5528 145.028 70.7634 145.028 72.2622C145.028 73.761 146.259 74.9716 147.784 74.9716H157.397C158.921 74.9716 160.153 73.761 160.153 72.2622C160.153 70.7634 158.921 69.5528 157.397 69.5528Z" fill="#CDA642"/>
<path d="M140.925 132.1H117.066C115.542 132.1 114.311 133.311 114.311 134.809C114.311 136.308 115.542 137.519 117.066 137.519H140.925C142.449 137.519 143.68 136.308 143.68 134.809C143.68 133.311 142.449 132.1 140.925 132.1Z" fill="#CDA642"/>
<path d="M26.5553 43.9574C26.5553 42.4586 25.3243 41.248 23.8001 41.248H2.75519C1.23104 41.248 0 42.4586 0 43.9574C0 45.4562 1.23104 46.6668 2.75519 46.6668H23.8001C25.3243 46.6668 26.5553 45.4562 26.5553 43.9574Z" fill="#CDA642"/>
<path d="M16.1208 15.422H38.8072C40.3313 15.422 41.5624 14.2114 41.5624 12.7126C41.5624 11.2138 40.3313 10.0032 38.8072 10.0032H16.1208C14.5967 10.0032 13.3657 11.2138 13.3657 12.7126C13.3657 14.2114 14.5967 15.422 16.1208 15.422Z" fill="#CDA642"/>
<path d="M92.1522 111.232C92.5625 112.327 93.6177 113.019 94.7315 113.019C95.0246 113.019 95.3763 112.961 95.6694 112.846C102.645 110.367 108.683 105.871 113.021 99.8753C117.476 93.7647 119.821 86.5011 119.821 79.007C119.821 77.5081 118.59 76.2975 117.066 76.2975C115.542 76.2975 114.311 77.5081 114.311 79.007C114.311 91.8623 106.045 103.392 93.7936 107.773C92.3867 108.234 91.6246 109.791 92.1522 111.232Z" fill="#CDA642"/>
<path d="M80.428 112.269C80.428 113.768 81.6591 114.979 83.1832 114.979C84.2384 114.979 85.3522 114.921 86.466 114.863C87.9901 114.748 89.1039 113.422 88.9867 111.923C88.8695 110.425 87.5212 109.329 85.997 109.445C85.0591 109.502 84.1212 109.56 83.2418 109.56C81.6591 109.56 80.428 110.77 80.428 112.269Z" fill="#CDA642"/>
</svg>
