<svg width="144" height="155" viewBox="0 0 144 155" fill="none" xmlns="http://www.w3.org/2000/svg">
<g clip-path="url(#clip0)">
<path d="M54.7473 126.168C56.0932 126.168 57.2709 125.106 57.383 123.765C57.5513 121.921 58.056 120.133 58.8411 118.457C59.514 117.172 58.9532 115.607 57.6634 114.937C56.3736 114.266 54.8033 114.825 54.1304 116.11C53.0088 118.345 52.3358 120.804 52.1115 123.318C51.9994 124.771 53.0649 126.056 54.523 126.168C54.579 126.168 54.6351 126.168 54.7473 126.168Z" fill="#C84A4A"/>
<path d="M60.6917 141.422C64.0565 143.713 67.9821 144.942 72.0759 144.942C83.1236 144.942 92.0963 136.002 92.0963 124.995C92.0963 113.987 83.1236 105.047 72.0759 105.047C67.6456 105.047 63.3835 106.5 59.9066 109.182C58.7289 110.076 58.5607 111.696 59.4019 112.87C60.2992 114.043 61.9255 114.211 63.1031 113.372C65.6828 111.361 68.8233 110.355 72.0759 110.355C80.2075 110.355 86.8249 116.948 86.8249 125.05C86.8249 133.153 80.2075 139.69 72.0759 139.69C65.9632 139.69 60.5796 136.058 58.3364 130.415C57.7756 129.074 56.2614 128.403 54.9155 128.962C53.5696 129.521 52.8966 131.029 53.4574 132.37C54.9155 136.002 57.383 139.131 60.6917 141.422Z" fill="#C84A4A"/>
<path d="M88.5072 98.9564V84.9874C88.5072 83.5346 87.3296 82.3612 85.8715 82.3612C84.4134 82.3612 83.2357 83.5346 83.2357 84.9874V91.8601H76.1697C74.7116 91.8601 73.534 93.0335 73.534 94.4863C73.534 95.9391 74.7116 97.1125 76.1697 97.1125H83.2357V100.409C83.2357 101.359 83.7405 102.253 84.5816 102.7C86.5444 103.818 88.3951 105.214 90.0214 106.835C94.7881 111.584 97.4239 117.898 97.4239 124.603C97.4239 131.309 94.7881 137.623 90.0214 142.372C85.2546 147.121 78.9176 149.748 72.188 149.748C65.4585 149.748 59.1215 147.121 54.3547 142.372C44.4847 132.538 44.4847 116.613 54.3547 106.779C55.981 105.159 57.7756 103.762 59.7944 102.644C60.6356 102.197 61.1404 101.303 61.1404 100.353V16.2599C61.1404 13.2985 62.318 10.5047 64.393 8.43728C66.4679 6.36986 69.2719 5.19647 72.2441 5.19647C75.2163 5.19647 78.0203 6.36986 80.0953 8.43728C82.0581 10.3929 83.1797 12.9074 83.3479 15.6453H76.3379C74.8799 15.6453 73.7022 16.8187 73.7022 18.2715C73.7022 19.7242 74.8799 20.8976 76.3379 20.8976H86.0397C87.4978 20.8976 88.6755 19.7242 88.6755 18.2715V16.2599C88.6755 11.9016 86.9931 7.82264 83.8526 4.74946C80.6 1.67628 76.5062 0 72.132 0C67.7578 0 63.6639 1.67628 60.5796 4.80534C57.4952 7.87852 55.7567 11.9575 55.7567 16.3158V98.9564C53.9061 100.13 52.1115 101.527 50.5413 103.147C38.6524 114.993 38.6524 134.326 50.5413 146.172C56.3175 151.927 63.9443 155.056 72.132 155.056C80.2635 155.056 87.9464 151.871 93.7226 146.172C99.4988 140.416 102.639 132.817 102.639 124.659C102.639 116.557 99.4428 108.902 93.7226 103.147C92.0963 101.527 90.3579 100.13 88.5072 98.9564Z" fill="#C84A4A"/>
<path d="M88.5073 27.8262C88.5073 26.3735 87.3296 25.2001 85.8715 25.2001C84.4134 25.2001 83.2358 26.3735 83.2358 27.8262V34.699H76.1697C74.7117 34.699 73.534 35.8724 73.534 37.3252C73.534 38.7779 74.7117 39.9513 76.1697 39.9513H85.8715C87.3296 39.9513 88.5073 38.7779 88.5073 37.3252V27.8262V27.8262Z" fill="#C84A4A"/>
<path d="M88.5073 46.88C88.5073 45.4272 87.3296 44.2538 85.8715 44.2538C84.4134 44.2538 83.2358 45.4272 83.2358 46.88V53.7527H76.1697C74.7117 53.7527 73.534 54.9261 73.534 56.3789C73.534 57.8317 74.7117 59.0051 76.1697 59.0051H85.8715C87.3296 59.0051 88.5073 57.8317 88.5073 56.3789V46.88V46.88Z" fill="#C84A4A"/>
<path d="M85.8715 63.3075C84.4134 63.3075 83.2358 64.4809 83.2358 65.9337V72.8064H76.1697C74.7117 72.8064 73.534 73.9798 73.534 75.4326C73.534 76.8854 74.7117 78.0588 76.1697 78.0588H85.8715C87.3296 78.0588 88.5073 76.8854 88.5073 75.4326V65.9337C88.5073 64.4809 87.3296 63.3075 85.8715 63.3075Z" fill="#C84A4A"/>
<path d="M116.323 49.0591C114.865 49.0591 113.687 50.2325 113.687 51.6853V94.5421C113.687 95.9949 114.865 97.1683 116.323 97.1683C117.781 97.1683 118.959 95.9949 118.959 94.5421V51.6853C118.959 50.2325 117.781 49.0591 116.323 49.0591Z" fill="#C84A4A"/>
<path d="M116.323 30.0054C114.865 30.0054 113.687 31.1788 113.687 32.6315V41.1806C113.687 42.6333 114.865 43.8067 116.323 43.8067C117.781 43.8067 118.959 42.6333 118.959 41.1806V32.6315C118.959 31.1788 117.781 30.0054 116.323 30.0054Z" fill="#C84A4A"/>
<path d="M140.83 64.1456C139.372 64.1456 138.194 65.319 138.194 66.7718V109.629C138.194 111.081 139.372 112.255 140.83 112.255C142.288 112.255 143.465 111.081 143.465 109.629V66.7718C143.465 65.319 142.288 64.1456 140.83 64.1456Z" fill="#C84A4A"/>
<path d="M140.83 117.451C139.372 117.451 138.194 118.625 138.194 120.078V128.627C138.194 130.079 139.372 131.253 140.83 131.253C142.288 131.253 143.465 130.079 143.465 128.627V120.078C143.465 118.625 142.288 117.451 140.83 117.451Z" fill="#C84A4A"/>
<path d="M27.8851 30.0054C26.4271 30.0054 25.2494 31.1788 25.2494 32.6315V75.4885C25.2494 76.9412 26.4271 78.1146 27.8851 78.1146C29.3432 78.1146 30.5209 76.9412 30.5209 75.4885V32.6315C30.5209 31.1788 29.3432 30.0054 27.8851 30.0054Z" fill="#C84A4A"/>
<path d="M27.8851 83.3112C26.4271 83.3112 25.2494 84.4846 25.2494 85.9373V94.4863C25.2494 95.9391 26.4271 97.1125 27.8851 97.1125C29.3432 97.1125 30.5209 95.9391 30.5209 94.4863V85.9373C30.5209 84.4846 29.3432 83.3112 27.8851 83.3112Z" fill="#C84A4A"/>
<path d="M3.3783 83.1993C1.92023 83.1993 0.742554 84.3727 0.742554 85.8255V128.682C0.742554 130.135 1.92023 131.309 3.3783 131.309C4.83637 131.309 6.01404 130.135 6.01404 128.682V85.8255C6.01404 84.3727 4.83637 83.1993 3.3783 83.1993Z" fill="#C84A4A"/>
<path d="M3.3783 64.1456C1.92023 64.1456 0.742554 65.319 0.742554 66.7718V75.3208C0.742554 76.7736 1.92023 77.947 3.3783 77.947C4.83637 77.947 6.01404 76.7736 6.01404 75.3208V66.7718C6.01404 65.319 4.83637 64.1456 3.3783 64.1456Z" fill="#C84A4A"/>
</g>
<defs>
<clipPath id="clip0">
<rect width="142.723" height="155" fill="white" transform="translate(0.742554)"/>
</clipPath>
</defs>
</svg>
