<svg width="162" height="145" viewBox="0 0 162 145" fill="none" xmlns="http://www.w3.org/2000/svg">
<path d="M4.02925 48.9182H7.39841C8.90872 48.9182 10.1286 47.7189 10.1286 46.2341C10.1286 44.7493 8.90872 43.55 7.39841 43.55H4.02925C2.51894 43.55 1.29907 44.7493 1.29907 46.2341C1.29907 47.7189 2.51894 48.9182 4.02925 48.9182Z" fill="#3FB8B9"/>
<path d="M88.6067 64.7374C87.0964 64.7374 85.8765 65.9367 85.8765 67.4215C85.8765 68.9064 87.0964 70.1057 88.6067 70.1057C96.0421 70.1057 102.083 64.1663 102.083 56.8564C102.083 49.5464 96.0421 43.6071 88.6067 43.6071H15.7632C14.2529 43.6071 13.033 44.8063 13.033 46.2912C13.033 47.776 14.2529 48.9753 15.7632 48.9753H88.5486C92.9634 48.9753 96.5649 52.5161 96.5649 56.8564C96.623 61.1966 93.0214 64.7374 88.6067 64.7374Z" fill="#3FB8B9"/>
<path d="M38.0113 38.0104C39.5216 38.0104 40.7414 36.8111 40.7414 35.3263C40.7414 33.8414 39.5216 32.6422 38.0113 32.6422H34.6421C33.1318 32.6422 31.9119 33.8414 31.9119 35.3263C31.9119 36.8111 33.1318 38.0104 34.6421 38.0104H38.0113Z" fill="#3FB8B9"/>
<path d="M43.6459 35.3263C43.6459 36.8111 44.8658 38.0104 46.3761 38.0104H146.463C150.878 38.0104 154.48 41.5512 154.48 45.8914C154.48 50.2317 150.878 53.7725 146.463 53.7725C144.953 53.7725 143.733 54.9718 143.733 56.4566C143.733 57.9414 144.953 59.1407 146.463 59.1407C153.899 59.1407 159.94 53.2014 159.94 45.8914C159.94 38.5815 153.957 32.6422 146.463 32.6422H46.3761C44.8658 32.6422 43.6459 33.8414 43.6459 35.3263Z" fill="#3FB8B9"/>
<path d="M15.0661 27.1597H18.4353C19.9456 27.1597 21.1654 25.9604 21.1654 24.4756C21.1654 22.9907 19.9456 21.7914 18.4353 21.7914H15.0661C13.5558 21.7914 12.3359 22.9907 12.3359 24.4756C12.3359 25.9033 13.5558 27.1597 15.0661 27.1597Z" fill="#3FB8B9"/>
<path d="M26.8001 27.1597H67.6947C75.1301 27.1597 81.1713 21.2203 81.1713 13.9104C81.1713 6.60041 75.1301 0.661072 67.6947 0.661072C66.1844 0.661072 64.9645 1.86036 64.9645 3.3452C64.9645 4.83003 66.1844 6.02932 67.6947 6.02932C72.1094 6.02932 75.7109 9.57008 75.7109 13.9104C75.7109 18.2506 72.1094 21.7914 67.6947 21.7914H26.8001C25.2898 21.7914 24.0699 22.9907 24.0699 24.4755C24.0699 25.9033 25.2898 27.1597 26.8001 27.1597Z" fill="#3FB8B9"/>
<path d="M4.72631 88.2663C7.9212 85.1253 12.1617 83.355 16.6926 83.355C21.2236 83.355 25.464 85.0682 28.6589 88.2663C29.2979 88.8945 29.8788 89.5798 30.4597 90.3223C30.9825 91.0076 31.7957 91.4073 32.6671 91.4073C33.5384 91.4073 34.3517 91.0076 34.8745 90.2651C38.0693 85.9249 43.1812 83.2978 48.6415 83.2978C54.1019 83.2978 59.2137 85.8677 62.4086 90.2651C62.9314 90.9504 63.7446 91.4073 64.616 91.4073C65.4873 91.4073 66.3005 91.0076 66.8233 90.2651C70.0182 85.9249 75.1301 83.2978 80.5904 83.2978C86.0508 83.2978 91.1626 85.8677 94.3575 90.2651C94.8803 90.9504 95.6935 91.4073 96.5649 91.4073C97.4362 91.4073 98.2494 91.0076 98.7722 90.2651C101.967 85.9249 107.079 83.2978 112.539 83.2978C118 83.2978 123.111 85.8677 126.306 90.2651C126.829 90.9504 127.642 91.4073 128.514 91.4073C129.385 91.4073 130.198 91.0076 130.721 90.3223C131.244 89.5798 131.883 88.8945 132.522 88.2663C135.717 85.1253 139.957 83.355 144.488 83.355C149.019 83.355 153.26 85.0682 156.455 88.2663C157.5 89.2943 159.243 89.2943 160.288 88.2663C161.334 87.2384 161.334 85.5251 160.288 84.4971C156.048 80.3282 150.413 78.0438 144.43 78.0438C138.447 78.0438 132.812 80.3282 128.572 84.4971C128.514 84.5542 128.456 84.6114 128.456 84.6114C124.273 80.4424 118.522 78.0438 112.481 78.0438C106.44 78.0438 100.689 80.4424 96.5068 84.6114C92.3244 80.4424 86.5736 78.0438 80.5323 78.0438C74.4911 78.0438 68.7403 80.4424 64.5579 84.6114C60.3755 80.4424 54.6247 78.0438 48.5834 78.0438C42.5422 78.0438 36.7914 80.4424 32.609 84.6114C32.5509 84.5542 32.4928 84.4971 32.4928 84.4971C28.2523 80.3282 22.6177 78.0438 16.6345 78.0438C10.6514 78.0438 5.01676 80.3282 0.776266 84.4971C-0.269335 85.5251 -0.269335 87.2384 0.776266 88.2663C1.93804 89.3514 3.68071 89.3514 4.72631 88.2663Z" fill="#3FB8B9"/>
<path d="M128.746 111.224C128.688 111.281 128.63 111.338 128.63 111.338C124.448 107.169 118.697 104.771 112.656 104.771C106.614 104.771 100.863 107.169 96.6811 111.338C92.4987 107.169 86.7479 104.771 80.7066 104.771C74.6654 104.771 68.9146 107.169 64.7322 111.338C60.5498 107.169 54.7989 104.771 48.7577 104.771C42.7165 104.771 36.9656 107.169 32.7832 111.338C32.7252 111.281 32.6671 111.224 32.6671 111.224C23.9537 102.658 9.72195 102.658 0.950521 111.224C-0.0950794 112.252 -0.0950794 113.965 0.950521 114.993C1.99612 116.021 3.73879 116.021 4.78439 114.993C11.4065 108.483 22.153 108.483 28.7751 114.993C29.4141 115.622 29.995 116.307 30.5759 117.049C31.0987 117.735 31.9119 118.134 32.7832 118.134C33.6546 118.134 34.4678 117.735 34.9906 116.992C38.1855 112.652 43.2973 110.025 48.7577 110.025C54.2181 110.025 59.3299 112.595 62.5248 116.992C63.0476 117.678 63.8608 118.134 64.7322 118.134C65.6035 118.134 66.4167 117.735 66.9395 116.992C70.1344 112.652 75.2463 110.025 80.7066 110.025C86.167 110.025 91.2788 112.595 94.4737 116.992C94.9965 117.678 95.8097 118.134 96.6811 118.134C97.5524 118.134 98.3656 117.735 98.8884 116.992C102.083 112.652 107.195 110.025 112.656 110.025C118.116 110.025 123.228 112.595 126.423 116.992C126.945 117.678 127.759 118.134 128.63 118.134C129.501 118.134 130.315 117.735 130.837 117.049C131.36 116.307 131.999 115.622 132.638 114.993C139.26 108.483 150.007 108.483 156.629 114.993C157.674 116.021 159.417 116.021 160.463 114.993C161.508 113.965 161.508 112.252 160.463 111.224C151.691 102.601 137.459 102.601 128.746 111.224Z" fill="#3FB8B9"/>
<path d="M128.746 137.894C128.688 137.951 128.63 138.008 128.63 138.008C124.448 133.839 118.697 131.441 112.656 131.441C106.614 131.441 100.863 133.839 96.6811 138.008C92.4987 133.839 86.7479 131.441 80.7066 131.441C74.6654 131.441 68.9146 133.839 64.7322 138.008C60.5498 133.839 54.7989 131.441 48.7577 131.441C42.7165 131.441 36.9656 133.839 32.7832 138.008C32.7252 137.951 32.6671 137.894 32.6671 137.894C23.9537 129.328 9.72195 129.328 0.950521 137.894C-0.0950794 138.922 -0.0950794 140.635 0.950521 141.663C1.99612 142.691 3.73879 142.691 4.78439 141.663C11.4065 135.153 22.153 135.153 28.7751 141.663C29.4141 142.291 29.995 142.977 30.5759 143.719C31.0987 144.404 31.9119 144.861 32.7832 144.861C33.6546 144.861 34.4678 144.462 34.9906 143.719C38.1855 139.379 43.2973 136.752 48.7577 136.752C54.2181 136.752 59.3299 139.322 62.5248 143.719C63.0476 144.404 63.8608 144.861 64.7322 144.861C65.6035 144.861 66.4167 144.462 66.9395 143.719C70.1344 139.379 75.2463 136.752 80.7066 136.752C86.167 136.752 91.2788 139.322 94.4737 143.719C94.9965 144.404 95.8097 144.861 96.6811 144.861C97.5524 144.861 98.3656 144.462 98.8884 143.719C102.083 139.379 107.195 136.752 112.656 136.752C118.116 136.752 123.228 139.322 126.423 143.719C126.945 144.404 127.759 144.861 128.63 144.861C129.501 144.861 130.315 144.462 130.837 143.776C131.36 143.034 131.999 142.349 132.638 141.72C139.26 135.21 150.007 135.21 156.629 141.72C157.674 142.748 159.417 142.748 160.463 141.72C161.508 140.692 161.508 138.979 160.463 137.951C151.691 129.328 137.459 129.328 128.746 137.894Z" fill="#3FB8B9"/>
</svg>
